<?xml version="1.0" encoding="utf-8"?>
<!-- Generator: Adobe Illustrator 24.0.1, SVG Export Plug-In . SVG Version: 6.00 Build 0)  -->
<svg version="1.1" id="Layer_1" xmlns="http://www.w3.org/2000/svg" xmlns:xlink="http://www.w3.org/1999/xlink" x="0px" y="0px"
	 viewBox="0 0 500 500" style="enable-background:new 0 0 500 500;" xml:space="preserve">
<g>
	<g>
		<path d="M58.3,237.6c1.9-7.2,6.6-12.4,11.7-17.5c48.3-48.2,96.5-96.5,144.8-144.7c20.4-20.4,50.3-24.2,74.7-9.4
			c4.3,2.6,8.2,6,11.8,9.5c13.4,13.1,26.5,26.4,39.8,39.7c1,1,2,1.9,3.6,3.4c0-8.1-0.1-15.5,0-22.8c0.1-10.9,6.3-19.6,15.8-22.7
			c15.5-4.9,30,6.2,30.1,23.3c0.1,21.4,0.1,42.9,0,64.4c0,2.8,0.7,4.8,2.8,6.8c17.5,17.4,34.9,34.9,52.5,52.3
			c5.2,5.2,10.1,10.5,12,17.8c0,2.6,0,5.2,0,7.8c-2.3,6.6-5.5,12.5-12,16c-8.4,4.4-18.2,3.5-25.5-2.6c-1.5-1.2-2.9-2.6-4.3-4
			c-48.7-48.7-97.4-97.4-146.1-146.1c-8.5-8.5-15.2-8.5-23.7,0c-49.1,49.1-98.2,98.2-147.3,147.2c-9.1,9.1-19.8,10.8-29.6,4.9
			c-5.9-3.5-8.9-9.2-11-15.4C58.3,242.8,58.3,240.2,58.3,237.6z"/>
		<path d="M295.4,327.2c-25,0-49.5,0-74.6,0c0,33.8,0,67.5,0,101.3c-0.9,0.2-1.4,0.4-1.9,0.4c-22.4,0-44.7,0.2-67.1-0.2
			c-19.6-0.4-37.8-18.8-38-38.4c-0.3-33.1-0.2-66.3,0.1-99.5c0-3.1,2.1-6.8,4.3-9.1c24.8-25.2,49.9-50.1,74.9-75.1
			c18.6-18.6,37.2-37.1,55.7-55.7c3.9-3.9,8.3-5.9,13.6-3.6c1.7,0.8,3.3,2.1,4.6,3.5c43.7,43.6,87.4,87.3,131,130.9
			c2.9,2.9,4.3,6.2,4.3,10.4c-0.1,31.7,0,63.4-0.1,95.2c0,22.9-17.3,41-40.3,41.4c-21.4,0.4-42.9,0.1-64.4,0.1
			c-0.6,0-1.3-0.1-2.4-0.2C295.4,394.9,295.4,361.2,295.4,327.2z"/>
	</g>
</g>
</svg>
