<?xml version="1.0" encoding="utf-8"?>
<!-- Generator: Adobe Illustrator 24.0.1, SVG Export Plug-In . SVG Version: 6.00 Build 0)  -->
<svg version="1.1" id="Layer_1" xmlns="http://www.w3.org/2000/svg" xmlns:xlink="http://www.w3.org/1999/xlink" x="0px" y="0px"
	 viewBox="0 0 500 500" style="enable-background:new 0 0 500 500;" xml:space="preserve">
<g>
	<g>
		<path d="M265.6,254c0,49.2,0,98.3,0,147.5c0,5.7-1.1,10.8-5.6,14.8c-7,6.2-16.7,5.5-23.8-1.6c-19.7-19.7-39.4-39.3-59-59
			c-5.3-5.3-10.6-10.8-16.1-15.9c-1.3-1.3-3.5-2.2-5.4-2.2c-12.9-0.2-25.7,0-38.6-0.1c-17.3-0.1-30.4-10.6-33.9-27
			c-0.5-2.4-0.5-4.9-0.5-7.4c0-32.6-0.1-65.3,0-97.9c0-16.8,9.9-29.5,25.6-33.3c3.1-0.8,6.4-1,9.7-1c12.5-0.1,25,0.1,37.4-0.2
			c2,0,4.6-1.1,6-2.5c25-24.8,49.9-49.8,74.8-74.7c8.3-8.3,20.8-7.7,26.5,1.7c1.8,2.9,2.7,6.8,2.7,10.3c0.3,16.8,0.1,33.5,0.1,50.3
			C265.6,188.4,265.6,221.2,265.6,254z"/>
		<path d="M415.5,254c-0.5,45.3-16.3,84.3-47.9,116.8c-8.6,8.9-21.7,7.3-27.3-3.1c-3.5-6.6-2.5-13.9,3.1-19.7
			c12.8-13.1,23.3-27.7,29.5-44.9c18.8-52.6,9.7-100-28.1-141.4c-4-4.4-7.1-9-6.3-15.2c0.9-6.9,4.7-11.8,11.3-14
			c6.7-2.2,12.5-0.4,17.4,4.5c18.6,18.8,32.1,40.6,40.2,65.8C412.8,219.3,415.6,236.4,415.5,254z"/>
		<path d="M349,254.9c-0.6,25.9-9.8,49.4-28.7,68.8c-7,7.2-17.1,7.6-24,1.1c-6.9-6.6-6.8-16.9,0.3-24.3c25.4-26.5,25.4-66.4-0.1-93
			c-6.7-7-7.1-16.3-1.2-23.2c5.4-6.3,15.3-7.8,21.8-2.7c4.2,3.4,7.9,7.6,11.2,11.9C341.9,211.3,348.6,231.5,349,254.9z"/>
	</g>
</g>
<path d="M472.9,144.6L46.5,420.1c-8.3,5.3-19.3,3-24.7-5.3l0,0c-5.3-8.3-3-19.3,5.3-24.7l426.4-275.4c8.3-5.3,19.3-3,24.7,5.3l0,0
	C483.5,128.2,481.2,139.3,472.9,144.6z"/>
</svg>
